<svg width="38" height="38" viewBox="0 0 38 38" fill="none" xmlns="http://www.w3.org/2000/svg">
<path d="M27.3125 12.4688H20.1875V7.71875H33.25C33.7223 7.71822 34.175 7.53038 34.5089 7.19645C34.8429 6.86251 35.0307 6.40975 35.0312 5.9375V1.1875H32.6562V5.34375H19.5938C19.1215 5.34428 18.6687 5.53212 18.3348 5.86605C18.0009 6.19999 17.813 6.65275 17.8125 7.125V12.4688H10.6875C8.16882 12.4716 5.75411 13.4734 3.97313 15.2544C2.19215 17.0354 1.19035 19.4501 1.1875 21.9688V29.4614C1.18952 31.2529 1.90211 32.9705 3.16893 34.2373C4.43575 35.5041 6.15334 36.2167 7.94489 36.2188H8.07849C9.06941 36.2201 10.0484 36.0029 10.9458 35.5826C11.8432 35.1623 12.6369 34.5494 13.2703 33.7873L17.1816 29.0938H20.7907L24.6996 34.1751C25.56 35.2935 26.749 36.1145 28.0998 36.5228C29.4505 36.9312 30.8952 36.9064 32.2311 36.452C33.5671 35.9976 34.7273 35.1364 35.5489 33.9891C36.3705 32.8419 36.8124 31.4662 36.8125 30.0551V21.9688C36.8097 19.4501 35.8078 17.0354 34.0269 15.2544C32.2459 13.4734 29.8312 12.4716 27.3125 12.4688ZM34.4375 30.0551C34.4375 30.9703 34.1509 31.8626 33.618 32.6066C33.0851 33.3507 32.3327 33.9093 31.4662 34.204C30.5997 34.4987 29.6627 34.5147 28.7867 34.2498C27.9107 33.9849 27.1395 33.4524 26.5815 32.727L21.9597 26.7188H16.0688L11.4454 32.2669C11.0347 32.761 10.52 33.1586 9.93807 33.4311C9.35615 33.7037 8.72129 33.8445 8.07871 33.8438H7.94512C6.78319 33.8425 5.66921 33.3804 4.84758 32.5588C4.02596 31.7372 3.5638 30.6233 3.5625 29.4614V21.9688C3.56462 20.0797 4.31597 18.2687 5.65171 16.933C6.98744 15.5972 8.79848 14.8459 10.6875 14.8438H27.3125C29.2015 14.8459 31.0126 15.5972 32.3483 16.933C33.684 18.2687 34.4354 20.0797 34.4375 21.9688V30.0551Z" fill="white"/>
<path d="M26.7188 18.4062H29.0938V20.7812H26.7188V18.4062ZM26.7188 24.3438H29.0938V26.7188H26.7188V24.3438ZM23.75 21.375H26.125V23.75H23.75V21.375ZM29.6875 21.375H32.0625V23.75H29.6875V21.375ZM11.2812 18.4062H8.90625V21.375H5.9375V23.75H8.90625V26.7188H11.2812V23.75H14.25V21.375H11.2812V18.4062Z" fill="white"/>
</svg>
