<svg width="37" height="37" viewBox="0 0 37 37" fill="none" xmlns="http://www.w3.org/2000/svg">
<g clip-path="url(#clip0_954_4819)">
<path d="M28.3281 0H8.67188C3.88253 0 0 3.88253 0 8.67188V28.3281C0 33.1175 3.88253 37 8.67188 37H28.3281C33.1175 37 37 33.1175 37 28.3281V8.67188C37 3.88253 33.1175 0 28.3281 0Z" fill="#121212"/>
<mask id="mask0_954_4819" style="mask-type:luminance" maskUnits="userSpaceOnUse" x="4" y="7" width="29" height="23">
<path d="M4.04688 7.37109H32.9531V29.7633H4.04688V7.37109Z" fill="white"/>
</mask>
<g mask="url(#mask0_954_4819)">
<path d="M28.5171 9.3653C26.643 8.50503 24.6653 7.89158 22.6334 7.54031C22.6149 7.53689 22.5958 7.53938 22.5789 7.54743C22.5619 7.55547 22.5479 7.56866 22.5388 7.58511C22.2848 8.03692 22.0032 8.62661 21.8062 9.08997C19.5843 8.75726 17.374 8.75726 15.1978 9.08997C15.0007 8.6162 14.709 8.03692 14.4538 7.58511C14.4443 7.56899 14.4302 7.5561 14.4133 7.54811C14.3965 7.54011 14.3775 7.5374 14.3591 7.54031C12.327 7.89087 10.3492 8.50435 8.47537 9.3653C8.45933 9.37211 8.4458 9.38373 8.43663 9.39855C4.68923 14.9971 3.66277 20.4581 4.16631 25.8514C4.16772 25.8646 4.17177 25.8774 4.17822 25.8891C4.18468 25.9007 4.19341 25.9109 4.20389 25.919C6.67624 27.7348 9.07127 28.8371 11.4218 29.5677C11.4401 29.5732 11.4596 29.5729 11.4777 29.567C11.4958 29.5611 11.5117 29.5497 11.5232 29.5345C12.0793 28.7751 12.5749 27.9746 12.9999 27.1327C13.0058 27.1211 13.0091 27.1085 13.0097 27.0956C13.0103 27.0827 13.0082 27.0698 13.0035 27.0577C12.9987 27.0457 12.9915 27.0348 12.9822 27.0258C12.973 27.0168 12.9619 27.0098 12.9498 27.0053C12.1635 26.707 11.415 26.3435 10.6949 25.9306C10.6818 25.9229 10.6708 25.9121 10.6629 25.8991C10.6549 25.8861 10.6503 25.8713 10.6494 25.8561C10.6485 25.841 10.6514 25.8258 10.6577 25.8119C10.6641 25.7981 10.6737 25.786 10.6858 25.7768C10.8377 25.6633 10.987 25.5463 11.1336 25.4259C11.1464 25.4153 11.162 25.4085 11.1785 25.4062C11.195 25.404 11.2118 25.4064 11.227 25.4132C15.9578 27.5731 21.0792 27.5731 25.7541 25.4132C25.7693 25.406 25.7863 25.4032 25.8031 25.4053C25.8198 25.4073 25.8357 25.4141 25.8487 25.4248C25.9955 25.5458 26.1451 25.6632 26.2977 25.7768C26.3098 25.786 26.3196 25.7979 26.326 25.8117C26.3325 25.8255 26.3354 25.8406 26.3346 25.8558C26.3338 25.871 26.3293 25.8858 26.3215 25.8988C26.3137 25.9119 26.3028 25.9228 26.2897 25.9306C25.5692 26.3513 24.8146 26.7104 24.0337 27.0042C24.0216 27.0088 24.0106 27.016 24.0014 27.0251C23.9922 27.0343 23.9851 27.0453 23.9805 27.0575C23.9759 27.0696 23.9738 27.0826 23.9746 27.0955C23.9753 27.1085 23.9788 27.1211 23.9847 27.1327C24.4172 27.9679 24.9103 28.7703 25.4601 29.5333C25.4713 29.549 25.4871 29.5607 25.5053 29.5668C25.5235 29.573 25.5432 29.5733 25.5616 29.5677C27.9235 28.8371 30.3185 27.7348 32.791 25.919C32.8016 25.9112 32.8104 25.9013 32.8169 25.8898C32.8234 25.8784 32.8274 25.8657 32.8286 25.8526C33.4313 19.6173 31.819 14.201 28.5547 9.3997C28.5467 9.3841 28.5333 9.3719 28.5171 9.3653ZM13.7064 22.5675C12.282 22.5675 11.1084 21.2599 11.1084 19.6541C11.1084 18.0482 12.2593 16.7406 13.7064 16.7406C15.1647 16.7406 16.3269 18.0597 16.304 19.6541C16.304 21.2599 15.1533 22.5675 13.7064 22.5675ZM23.3114 22.5675C21.887 22.5675 20.7136 21.2599 20.7136 19.6541C20.7136 18.0482 21.8643 16.7406 23.3114 16.7406C24.7697 16.7406 25.9319 18.0597 25.9092 19.6541C25.9092 21.2599 24.7697 22.5675 23.3114 22.5675Z" fill="white"/>
</g>
</g>
<defs>
<clipPath id="clip0_954_4819">
<rect width="37" height="37" fill="white"/>
</clipPath>
</defs>
</svg>
