<svg width="312" height="188" viewBox="0 0 312 188" fill="none" xmlns="http://www.w3.org/2000/svg">
<path d="M14.912 52.552H29.248V61H3.968V16.072H14.912V52.552ZM68.132 42.568C68.132 43.592 68.068 44.6587 67.94 45.768H43.172C43.3427 47.9867 44.0467 49.6933 45.284 50.888C46.564 52.04 48.1213 52.616 49.956 52.616C52.6867 52.616 54.5853 51.464 55.652 49.16H67.3C66.7027 51.5067 65.6147 53.6187 64.036 55.496C62.5 57.3733 60.5587 58.8453 58.212 59.912C55.8653 60.9787 53.2413 61.512 50.34 61.512C46.8413 61.512 43.7267 60.7653 40.996 59.272C38.2653 57.7787 36.132 55.6453 34.596 52.872C33.06 50.0987 32.292 46.856 32.292 43.144C32.292 39.432 33.0387 36.1893 34.532 33.416C36.068 30.6427 38.2013 28.5093 40.932 27.016C43.6627 25.5227 46.7987 24.776 50.34 24.776C53.796 24.776 56.868 25.5013 59.556 26.952C62.244 28.4027 64.3347 30.472 65.828 33.16C67.364 35.848 68.132 38.984 68.132 42.568ZM56.932 39.688C56.932 37.8107 56.292 36.3173 55.012 35.208C53.732 34.0987 52.132 33.544 50.212 33.544C48.3773 33.544 46.82 34.0773 45.54 35.144C44.3027 36.2107 43.5347 37.7253 43.236 39.688H56.932ZM93.8095 51.72V61H88.2415C84.2735 61 81.1802 60.04 78.9615 58.12C76.7428 56.1573 75.6335 52.9787 75.6335 48.584V34.376H71.2815V25.288H75.6335V16.584H86.5775V25.288H93.7455V34.376H86.5775V48.712C86.5775 49.7787 86.8335 50.5467 87.3455 51.016C87.8575 51.4853 88.7108 51.72 89.9055 51.72H93.8095ZM102.402 16.072H113.602L106.434 33.224H99.0735L102.402 16.072ZM134.559 61.512C131.444 61.512 128.671 60.9787 126.239 59.912C123.807 58.8453 121.887 57.3947 120.479 55.56C119.071 53.6827 118.281 51.592 118.111 49.288H128.927C129.055 50.5253 129.631 51.528 130.655 52.296C131.679 53.064 132.937 53.448 134.431 53.448C135.796 53.448 136.841 53.192 137.567 52.68C138.335 52.1253 138.719 51.4213 138.719 50.568C138.719 49.544 138.185 48.7973 137.119 48.328C136.052 47.816 134.324 47.2613 131.935 46.664C129.375 46.0667 127.241 45.448 125.535 44.808C123.828 44.1253 122.356 43.08 121.119 41.672C119.881 40.2213 119.263 38.28 119.263 35.848C119.263 33.8 119.817 31.944 120.927 30.28C122.079 28.5733 123.743 27.2293 125.919 26.248C128.137 25.2667 130.761 24.776 133.791 24.776C138.271 24.776 141.791 25.8853 144.351 28.104C146.953 30.3227 148.447 33.2667 148.831 36.936H138.719C138.548 35.6987 137.993 34.7173 137.055 33.992C136.159 33.2667 134.964 32.904 133.471 32.904C132.191 32.904 131.209 33.16 130.527 33.672C129.844 34.1413 129.503 34.8027 129.503 35.656C129.503 36.68 130.036 37.448 131.103 37.96C132.212 38.472 133.919 38.984 136.223 39.496C138.868 40.1787 141.023 40.8613 142.687 41.544C144.351 42.184 145.801 43.2507 147.039 44.744C148.319 46.1947 148.98 48.1573 149.023 50.632C149.023 52.7227 148.425 54.6 147.231 56.264C146.079 57.8853 144.393 59.1653 142.175 60.104C139.999 61.0427 137.46 61.512 134.559 61.512ZM180.225 30.344C181.291 28.68 182.763 27.336 184.641 26.312C186.518 25.288 188.715 24.776 191.233 24.776C194.177 24.776 196.843 25.5227 199.233 27.016C201.622 28.5093 203.499 30.6427 204.865 33.416C206.273 36.1893 206.977 39.4107 206.977 43.08C206.977 46.7493 206.273 49.992 204.865 52.808C203.499 55.5813 201.622 57.736 199.233 59.272C196.843 60.7653 194.177 61.512 191.233 61.512C188.758 61.512 186.561 61 184.641 59.976C182.763 58.952 181.291 57.6293 180.225 56.008V78.024H169.281V25.288H180.225V30.344ZM195.841 43.08C195.841 40.3493 195.073 38.216 193.537 36.68C192.043 35.1013 190.187 34.312 187.969 34.312C185.793 34.312 183.937 35.1013 182.401 36.68C180.907 38.2587 180.161 40.4133 180.161 43.144C180.161 45.8747 180.907 48.0293 182.401 49.608C183.937 51.1867 185.793 51.976 187.969 51.976C190.145 51.976 192.001 51.1867 193.537 49.608C195.073 47.9867 195.841 45.8107 195.841 43.08ZM223.662 13.64V61H212.718V13.64H223.662ZM229.417 43.08C229.417 39.4107 230.1 36.1893 231.465 33.416C232.873 30.6427 234.772 28.5093 237.161 27.016C239.55 25.5227 242.217 24.776 245.161 24.776C247.678 24.776 249.876 25.288 251.753 26.312C253.673 27.336 255.145 28.68 256.169 30.344V25.288H267.113V61H256.169V55.944C255.102 57.608 253.609 58.952 251.689 59.976C249.812 61 247.614 61.512 245.097 61.512C242.196 61.512 239.55 60.7653 237.161 59.272C234.772 57.736 232.873 55.5813 231.465 52.808C230.1 49.992 229.417 46.7493 229.417 43.08ZM256.169 43.144C256.169 40.4133 255.401 38.2587 253.865 36.68C252.372 35.1013 250.537 34.312 248.361 34.312C246.185 34.312 244.329 35.1013 242.793 36.68C241.3 38.216 240.553 40.3493 240.553 43.08C240.553 45.8107 241.3 47.9867 242.793 49.608C244.329 51.1867 246.185 51.976 248.361 51.976C250.537 51.976 252.372 51.1867 253.865 49.608C255.401 48.0293 256.169 45.8747 256.169 43.144ZM311.511 25.288L289.111 77.96H277.335L285.527 59.784L270.998 25.288H283.223L291.479 47.624L299.671 25.288H311.511Z" fill="url(#paint0_linear_954_4812)"/>
<path d="M177.594 120.141H158.656V107.516H193.375C194.63 107.514 195.834 107.015 196.721 106.127C197.609 105.24 198.108 104.036 198.109 102.781V90.1562H191.797V101.203H157.078C155.823 101.205 154.62 101.704 153.732 102.591C152.844 103.479 152.345 104.682 152.344 105.938V120.141H133.406C126.712 120.148 120.294 122.811 115.56 127.545C110.827 132.278 108.164 138.696 108.156 145.391V165.305C108.162 170.067 110.056 174.632 113.423 177.999C116.79 181.366 121.355 183.26 126.117 183.266H126.472C129.106 183.269 131.708 182.692 134.093 181.575C136.478 180.458 138.588 178.829 140.271 176.803L150.667 164.328H160.26L170.649 177.834C172.936 180.807 176.096 182.989 179.686 184.074C183.276 185.159 187.116 185.093 190.667 183.886C194.218 182.678 197.301 180.389 199.485 177.34C201.669 174.29 202.843 170.634 202.844 166.883V145.391C202.836 138.696 200.173 132.278 195.44 127.545C190.706 122.811 184.288 120.148 177.594 120.141ZM196.531 166.883C196.531 169.316 195.77 171.687 194.353 173.665C192.937 175.643 190.937 177.127 188.634 177.911C186.331 178.694 183.84 178.736 181.512 178.032C179.184 177.328 177.134 175.913 175.651 173.985L163.367 158.016H147.709L135.421 172.762C134.329 174.075 132.961 175.132 131.414 175.856C129.868 176.581 128.18 176.955 126.472 176.953H126.117C123.029 176.95 120.068 175.722 117.884 173.538C115.701 171.354 114.472 168.393 114.469 165.305V145.391C114.474 140.37 116.471 135.556 120.022 132.006C123.572 128.456 128.385 126.459 133.406 126.453H177.594C182.615 126.459 187.428 128.456 190.978 132.006C194.529 135.556 196.526 140.37 196.531 145.391V166.883Z" fill="url(#paint1_linear_954_4812)"/>
<path d="M176.016 135.922H182.328V142.234H176.016V135.922ZM176.016 151.703H182.328V158.016H176.016V151.703ZM168.125 143.812H174.438V150.125H168.125V143.812ZM183.906 143.812H190.219V150.125H183.906V143.812ZM134.984 135.922H128.672V143.812H120.781V150.125H128.672V158.016H134.984V150.125H142.875V143.812H134.984V135.922Z" fill="url(#paint2_linear_954_4812)"/>
<defs>
<linearGradient id="paint0_linear_954_4812" x1="156" y1="0" x2="156" y2="77" gradientUnits="userSpaceOnUse">
<stop stop-color="#B5FF16" stop-opacity="0.7"/>
<stop offset="1" stop-color="#84BC0C"/>
</linearGradient>
<linearGradient id="paint1_linear_954_4812" x1="155.5" y1="90.1562" x2="155.5" y2="184.842" gradientUnits="userSpaceOnUse">
<stop stop-color="#B5FF16" stop-opacity="0.7"/>
<stop offset="0.595" stop-color="#8BC60D" stop-opacity="0.8665"/>
<stop offset="1" stop-color="#81BA06"/>
</linearGradient>
<linearGradient id="paint2_linear_954_4812" x1="155.5" y1="135.922" x2="155.5" y2="158.016" gradientUnits="userSpaceOnUse">
<stop stop-color="#B5FF16" stop-opacity="0.7"/>
<stop offset="0.595" stop-color="#8BC60D" stop-opacity="0.8665"/>
<stop offset="1" stop-color="#81BA06"/>
</linearGradient>
</defs>
</svg>
